<svg width="25" height="26" viewBox="0 0 25 26" fill="none" xmlns="http://www.w3.org/2000/svg">
<g clip-path="url(#clip0_154_3)">
<path fill-rule="evenodd" clip-rule="evenodd" d="M7.44717 0.10883C6.80708 0.276532 6.21547 0.616891 5.74619 1.08737C5.28818 1.54652 5.04461 1.92577 4.83023 2.51351C4.6957 2.88236 4.68453 2.97784 4.68453 3.75725C4.68453 4.53666 4.6957 4.63214 4.83023 5.00099C5.10523 5.75485 5.63622 6.46226 6.14537 6.75306L6.42184 6.91095L4.00065 6.92724C1.58638 6.94353 1.57859 6.94391 1.25272 7.07495C0.805719 7.25464 0.311166 7.74924 0.131373 8.19625C0.00288676 8.51591 0 8.55807 0 10.1298C0 11.5748 0.0104031 11.7647 0.103595 12.0156C0.318355 12.5941 0.739652 13.0174 1.31498 13.2326C1.60877 13.3425 1.68617 13.3433 12.5 13.3433C23.3138 13.3433 23.3912 13.3425 23.685 13.2326C24.2603 13.0174 24.6816 12.5941 24.8964 12.0156C24.9896 11.7647 25 11.5748 25 10.1298C25 8.55807 24.9971 8.51591 24.8686 8.19625C24.6887 7.74892 24.1942 7.25453 23.7473 7.07522C23.4236 6.94538 23.3975 6.94385 21.024 6.91662L18.6275 6.88906L18.8789 6.74124C19.4315 6.41635 19.9856 5.62495 20.2239 4.82005C20.3865 4.27043 20.4054 3.42969 20.268 2.85856C20.0128 1.7981 19.2928 0.891837 18.3267 0.41493C17.7192 0.115039 17.2331 0.00131401 16.5528 6.825e-06C15.6638 -0.00168163 14.7815 0.309974 14.0971 0.867436C13.6053 1.26793 13.1072 2.04707 12.6849 3.07642L12.506 3.51215L12.4106 3.26705C12.2078 2.74652 11.6187 1.64581 11.3821 1.34549C10.9257 0.765911 10.0663 0.241129 9.31215 0.0813793C8.77887 -0.0315836 7.93568 -0.0191653 7.44717 0.10883ZM9.16536 1.90605C9.62233 2.10741 9.81089 2.27757 10.1007 2.75017C10.5855 3.54069 11.1197 4.82119 11.3241 5.68236L11.3609 5.83737L10.5824 5.80219C8.49074 5.70774 7.36944 5.5011 6.9933 5.1408C6.91138 5.06226 6.76269 4.84756 6.66291 4.66357C6.49009 4.345 6.48148 4.30208 6.48148 3.75725C6.48148 3.23862 6.49543 3.15888 6.63115 2.90142C6.92206 2.34963 7.36269 1.98378 7.92663 1.82582C8.30289 1.72043 8.82026 1.75393 9.16536 1.90605ZM17.4126 1.97207C17.8066 2.15306 18.1867 2.53192 18.3731 2.92958C18.5005 3.20137 18.5185 3.30731 18.5179 3.78448C18.5174 4.27196 18.5017 4.35894 18.3682 4.61308C18.0283 5.26052 17.7472 5.42435 16.6568 5.61079C16.1019 5.70567 14.5869 5.82408 13.9015 5.82615C13.6457 5.82697 13.6423 5.82468 13.6772 5.67719C13.8054 5.13601 14.1888 4.1146 14.4899 3.51215C15.0355 2.42076 15.2955 2.12054 15.8846 1.90219C16.3069 1.7457 16.9877 1.7768 17.4126 1.97207ZM1.71661 18.2589C1.7177 22.4884 1.71601 22.4663 2.0982 23.2418C2.39837 23.8508 2.864 24.3164 3.47298 24.6166C4.24248 24.9958 4.25784 24.9971 8.15632 24.9982L11.6285 24.9991V19.7431V14.4871H6.67211H1.71569L1.71661 18.2589ZM13.3715 19.7453V25.0034L17.0071 24.9876L20.6427 24.9718L21.0691 24.821C22.078 24.4641 22.7493 23.7928 23.1063 22.7838L23.2571 22.3575L23.2727 18.4223L23.2884 14.4871H18.3299H13.3715V19.7453Z" fill="url(#paint0_linear_154_3)"/>
</g>
<defs>
<linearGradient id="paint0_linear_154_3" x1="25" y1="-8" x2="-1.08798e-06" y2="30.5" gradientUnits="userSpaceOnUse">
<stop stop-color="#D9D9D9"/>
<stop offset="1" stop-color="#F7F7F7"/>
</linearGradient>
<clipPath id="clip0_154_3">
<rect width="25" height="26" fill="white"/>
</clipPath>
</defs>
</svg>
